[img]http://i.imgrz.com/BCQ.jpg[/img]
[code]

Sinister.2012.REPACK.R5.LINE.XVID-26K
 
http://uk.imdb.com/title/tt1922777/

Plot:
A true-crime writer finds a cache of 8mm "snuff" films that suggest the murder he is currently researching is the work of a serial killer whose career dates back to the 1960s.

Sources - Audio-LINE AUDIO....Thanks :P
          VIDEO-RUSSIAN.....Thanks :P
          Subs- NO...

Video
ID                                       : 0
Format                                   : MPEG-4 Visual
Format profile                           : Advanced Simple@L5
Format settings, BVOP                    : 2
Format settings, QPel                    : No
Format settings, GMC                     : No warppoints
Format settings, Matrix                  : Default (H.263)
Muxing mode                              : Packed bitstream
Codec ID                                 : XVID
Codec ID/Hint                            : XviD
Duration                                 : 1h 44mn
Bit rate                                 : 1 889 Kbps
Width                                    : 720 pixels
Height                                   : 304 pixels
Display aspect ratio                     : 2.35:1
Frame rate                               : 25.000 fps
Color space                              : YUV
Chroma subsampling                       : 4:2:0
Bit depth                                : 8 bits
Scan type                                : Progressive
Compression mode                         : Lossy
Bits/(Pixel*Frame)                       : 0.345
Stream size                              : 1.38 GiB (93%)
Writing library                          : XviD 64

Audio
ID                                       : 1
Format                                   : MPEG Audio
Format version                           : Version 1
Format profile                           : Layer 3
Codec ID                                 : 55
Codec ID/Hint                            : MP3
Duration                                 : 1h 44mn
Bit rate mode                            : Constant
Bit rate                                 : 128 Kbps
Channel(s)                               : 2 channels
Sampling rate                            : 48.0 KHz
Compression mode                         : Lossy
Delay relative to video                  : 25ms
Stream size                              : 96.0 MiB (6%)
Alignment                                : Split accross interleaves
Interleave, duration                     : 16345 ms (408.62 video frames)

Notes -
REASON FOR REPACK...LAST RIP WAS OUT OF SYNC.. SORRY ABOUT THAT.. ONE OF MY ENCODERS MESSED IT UP .. SO HERE IS A FIX FROM ME.ENJOY... REALLY NEED A NEW ISP UPLOAD SPEED SUCKS ASS...ANYWAYS ENJOY

[/code]

Screens:
[IMG]http://i.imgur.com/q63ar.png[/IMG]
[IMG]http://i.imgur.com/UUwOH.png[/IMG]
[IMG]http://i.imgur.com/8n5gf.png[/IMG]
[IMG]http://i.imgur.com/lZWKK.png[/IMG]
[IMG]http://i.imgur.com/hCW26.png[/IMG]
[IMG]http://s9.postimage.org/8oenfacsv/vlcsnap_2012_11_17_18h26m57s43.png[/IMG]
[IMG]http://s9.postimage.org/fswgobk27/vlcsnap_2012_11_17_18h27m03s99.png[/IMG]
[IMG]http://s9.postimage.org/j10y1d6bz/vlcsnap_2012_11_17_18h28m06s238.png[/IMG]
[IMG]http://s9.postimage.org/q5iraedlb/vlcsnap_2012_11_17_18h28m12s30.png[/IMG]
[IMG]http://s9.postimage.org/tdn8nfzv3/vlcsnap_2012_11_17_18h28m24s153.png[/IMG]
[IMG]http://s9.postimage.org/pijukvgpb/vlcsnap_2012_11_17_18h28m29s199.png[/IMG]

Greetz:
XtremeEncode|FYA|ILLUMANTI|CM8||meggafast|RX|VISION|HDSCENE|xTriLL|DTRG|CRYS|REMIXHD|BIDA|RX|REFILL|INSPiRAL|AXED|HOPE|Anonymous|GooN|NOIR|Blackjesus|Gabroo Punjab Deh|UNiQUE|DQ1|RESiSTANCE|HS||LEGION|STN|BOBBYBLUE

To all the people who have helped me  you know who you are

Anything to offer email us @: 26k@hushmail.me
<<bullying has to be stopped now!>>

[/pre]